<svg width="169" height="169" viewBox="0 0 169 169" fill="none" xmlns="http://www.w3.org/2000/svg">
<rect width="169" height="169" rx="26" fill="#D9D9D9"/>
<path fill-rule="evenodd" clip-rule="evenodd" d="M70.42 69.5864C72.3141 69.5864 74.1306 68.7899 75.4699 67.372C76.8092 65.9542 77.5617 64.0312 77.5617 62.026C77.5617 60.0209 76.8092 58.0979 75.4699 56.68C74.1306 55.2622 72.3141 54.4657 70.42 54.4657C68.5259 54.4657 66.7094 55.2622 65.3701 56.68C64.0308 58.0979 63.2784 60.0209 63.2784 62.026C63.2784 64.0312 64.0308 65.9542 65.3701 67.372C66.7094 68.7899 68.5259 69.5864 70.42 69.5864ZM70.42 77.1468C74.2082 77.1468 77.8412 75.5537 80.5198 72.718C83.1985 69.8823 84.7033 66.0363 84.7033 62.026C84.7033 58.0158 83.1985 54.1697 80.5198 51.334C77.8412 48.4983 74.2082 46.9053 70.42 46.9053C66.6319 46.9053 62.9988 48.4983 60.3202 51.334C57.6416 54.1697 56.1367 58.0158 56.1367 62.026C56.1367 66.0363 57.6416 69.8823 60.3202 72.718C62.9988 75.5537 66.6319 77.1468 70.42 77.1468Z" fill="#F2F2F2"/>
<path d="M66.8513 89.832L53.2108 109.277H66.8513L80.4919 116.838H53.2108C51.8881 116.836 50.5918 116.446 49.4663 115.711C48.3408 114.975 47.4304 113.923 46.8365 112.672C46.2427 111.421 45.9887 110.02 46.1028 108.625C46.217 107.23 46.6949 105.896 47.4832 104.771L61.1166 85.326C61.781 84.3784 62.6457 83.6086 63.6415 83.0782C64.6373 82.5477 65.7366 82.2715 66.8513 82.2715C67.9661 82.2715 69.0654 82.5477 70.0612 83.0782C71.057 83.6086 71.9217 84.3784 72.5861 85.326L79.4064 95.0487L73.6716 99.5547L66.8513 89.832Z" fill="#F2F2F2"/>
<path fill-rule="evenodd" clip-rule="evenodd" d="M115.102 109.279L93.6271 83.0294L72.1521 109.279H115.102ZM99.0261 78.0774C98.3557 77.2577 97.5266 76.6002 96.5951 76.1496C95.6635 75.699 94.6513 75.4658 93.6271 75.4658C92.6029 75.4658 91.5906 75.699 90.6591 76.1496C89.7275 76.6002 88.8984 77.2577 88.228 78.0774L66.753 104.327C65.8561 105.422 65.2755 106.768 65.0806 108.203C64.8856 109.638 65.0845 111.102 65.6535 112.42C66.2225 113.739 67.1376 114.857 68.2898 115.64C69.442 116.424 70.7827 116.84 72.1521 116.839H115.102C116.471 116.84 117.812 116.424 118.964 115.64C120.117 114.857 121.032 113.739 121.601 112.42C122.17 111.102 122.369 109.638 122.174 108.203C121.979 106.768 121.398 105.422 120.501 104.327L99.0261 78.0774Z" fill="#F2F2F2"/>
<path fill-rule="evenodd" clip-rule="evenodd" d="M134.696 28.0037H34.7125C33.7654 28.0037 32.8572 28.402 32.1875 29.1109C31.5179 29.8199 31.1416 30.7814 31.1416 31.7839V137.629C31.1416 138.632 31.5179 139.593 32.1875 140.302C32.8572 141.011 33.7654 141.409 34.7125 141.409H134.696C135.643 141.409 136.551 141.011 137.221 140.302C137.89 139.593 138.266 138.632 138.266 137.629V31.7839C138.266 30.7814 137.89 29.8199 137.221 29.1109C136.551 28.402 135.643 28.0037 134.696 28.0037ZM34.7125 20.4434C31.8713 20.4434 29.1466 21.6382 27.1376 23.7649C25.1286 25.8917 24 28.7762 24 31.7839V137.629C24 140.637 25.1286 143.521 27.1376 145.648C29.1466 147.775 31.8713 148.97 34.7125 148.97H134.696C137.537 148.97 140.261 147.775 142.27 145.648C144.279 143.521 145.408 140.637 145.408 137.629V31.7839C145.408 28.7762 144.279 25.8917 142.27 23.7649C140.261 21.6382 137.537 20.4434 134.696 20.4434H34.7125Z" fill="#F2F2F2"/>
<path d="M95.9296 136.223H94.1278L93.6774 134.815C93.3854 133.989 92.8437 133.275 92.1275 132.77C91.4112 132.266 90.5558 131.997 89.6797 132H82.4727C81.5881 132.002 80.7263 132.281 80.009 132.799C79.2918 133.317 78.7552 134.047 78.4751 134.886L78.0246 136.293H76.2229C75.1029 136.293 74.0288 136.738 73.2368 137.53C72.4449 138.322 72 139.396 72 140.516V151.777C72 152.897 72.4449 153.971 73.2368 154.763C74.0288 155.555 75.1029 156 76.2229 156H95.9296C97.0496 156 98.1237 155.555 98.9156 154.763C99.7075 153.971 100.152 152.897 100.152 151.777V140.516C100.162 139.956 100.059 139.399 99.8514 138.879C99.6434 138.358 99.3338 137.884 98.9408 137.485C98.5477 137.085 98.079 136.768 97.562 136.551C97.045 136.334 96.4901 136.223 95.9296 136.223ZM97.3372 151.707C97.3372 152.08 97.1889 152.438 96.9249 152.702C96.6609 152.966 96.3029 153.114 95.9296 153.114H76.2229C75.8495 153.114 75.4915 152.966 75.2275 152.702C74.9635 152.438 74.8152 152.08 74.8152 151.707V140.446C74.8152 140.072 74.9635 139.714 75.2275 139.45C75.4915 139.186 75.8495 139.038 76.2229 139.038H79.0381C79.3451 139.054 79.6488 138.969 79.903 138.796C80.1572 138.624 80.3478 138.372 80.4457 138.081L81.2059 135.772C81.3003 135.493 81.4802 135.25 81.7202 135.078C81.9601 134.907 82.248 134.815 82.5431 134.815H89.7501C90.0452 134.815 90.3331 134.907 90.5731 135.078C90.813 135.25 90.9929 135.493 91.0874 135.772L91.8475 138.081C91.9378 138.349 92.107 138.584 92.3331 138.755C92.5591 138.926 92.8314 139.025 93.1143 139.038H95.9296C96.3029 139.038 96.6609 139.186 96.9249 139.45C97.1889 139.714 97.3372 140.072 97.3372 140.446V151.707ZM86.0762 139.038C84.9626 139.038 83.874 139.368 82.9481 139.987C82.0222 140.606 81.3005 141.485 80.8743 142.514C80.4482 143.543 80.3367 144.675 80.5539 145.767C80.7712 146.859 81.3074 147.863 82.0949 148.65C82.8823 149.437 83.8856 149.974 84.9778 150.191C86.07 150.408 87.2021 150.297 88.2309 149.871C89.2598 149.444 90.1391 148.723 90.7578 147.797C91.3765 146.871 91.7067 145.782 91.7067 144.669C91.7067 143.175 91.1135 141.743 90.0576 140.687C89.0017 139.631 87.5695 139.038 86.0762 139.038ZM86.0762 147.484C85.5194 147.484 84.9751 147.319 84.5122 147.009C84.0492 146.7 83.6884 146.26 83.4753 145.746C83.2622 145.232 83.2064 144.666 83.3151 144.119C83.4237 143.573 83.6918 143.072 84.0855 142.678C84.4793 142.284 84.9809 142.016 85.527 141.907C86.0731 141.799 86.6392 141.855 87.1536 142.068C87.668 142.281 88.1077 142.642 88.417 143.105C88.7264 143.568 88.8915 144.112 88.8915 144.669C88.8915 145.415 88.5949 146.131 88.0669 146.659C87.5389 147.187 86.8229 147.484 86.0762 147.484Z" fill="#3B4758"/>
</svg>
