<svg width="169" height="169" viewBox="0 0 169 169" fill="none" xmlns="http://www.w3.org/2000/svg">
<rect width="169" height="169" rx="26" fill="#D9D9D9"/>
<path fill-rule="evenodd" clip-rule="evenodd" d="M70.42 69.5864C72.3141 69.5864 74.1306 68.7899 75.4699 67.372C76.8092 65.9542 77.5617 64.0312 77.5617 62.026C77.5617 60.0209 76.8092 58.0979 75.4699 56.68C74.1306 55.2622 72.3141 54.4657 70.42 54.4657C68.5259 54.4657 66.7094 55.2622 65.3701 56.68C64.0308 58.0979 63.2784 60.0209 63.2784 62.026C63.2784 64.0312 64.0308 65.9542 65.3701 67.372C66.7094 68.7899 68.5259 69.5864 70.42 69.5864ZM70.42 77.1468C74.2082 77.1468 77.8412 75.5537 80.5198 72.718C83.1985 69.8823 84.7033 66.0363 84.7033 62.026C84.7033 58.0158 83.1985 54.1697 80.5198 51.334C77.8412 48.4983 74.2082 46.9053 70.42 46.9053C66.6319 46.9053 62.9988 48.4983 60.3202 51.334C57.6416 54.1697 56.1367 58.0158 56.1367 62.026C56.1367 66.0363 57.6416 69.8823 60.3202 72.718C62.9988 75.5537 66.6319 77.1468 70.42 77.1468Z" fill="#F2F2F2"/>
<path d="M66.8513 89.832L53.2108 109.277H66.8513L80.4919 116.838H53.2108C51.8881 116.836 50.5918 116.446 49.4663 115.711C48.3408 114.975 47.4304 113.923 46.8365 112.672C46.2427 111.421 45.9887 110.02 46.1028 108.625C46.217 107.23 46.6949 105.896 47.4832 104.771L61.1166 85.326C61.781 84.3784 62.6457 83.6086 63.6415 83.0782C64.6373 82.5477 65.7366 82.2715 66.8513 82.2715C67.9661 82.2715 69.0654 82.5477 70.0612 83.0782C71.057 83.6086 71.9217 84.3784 72.5861 85.326L79.4064 95.0487L73.6716 99.5547L66.8513 89.832Z" fill="#F2F2F2"/>
<path fill-rule="evenodd" clip-rule="evenodd" d="M115.102 109.279L93.6271 83.0294L72.1521 109.279H115.102ZM99.0261 78.0774C98.3557 77.2577 97.5266 76.6002 96.5951 76.1496C95.6635 75.699 94.6513 75.4658 93.6271 75.4658C92.6029 75.4658 91.5906 75.699 90.6591 76.1496C89.7275 76.6002 88.8984 77.2577 88.228 78.0774L66.753 104.327C65.8561 105.422 65.2755 106.768 65.0806 108.203C64.8856 109.638 65.0845 111.102 65.6535 112.42C66.2225 113.739 67.1376 114.857 68.2898 115.64C69.442 116.424 70.7827 116.84 72.1521 116.839H115.102C116.471 116.84 117.812 116.424 118.964 115.64C120.117 114.857 121.032 113.739 121.601 112.42C122.17 111.102 122.369 109.638 122.174 108.203C121.979 106.768 121.398 105.422 120.501 104.327L99.0261 78.0774Z" fill="#F2F2F2"/>
<path fill-rule="evenodd" clip-rule="evenodd" d="M134.696 28.0037H34.7125C33.7654 28.0037 32.8572 28.402 32.1875 29.1109C31.5179 29.8199 31.1416 30.7814 31.1416 31.7839V137.629C31.1416 138.632 31.5179 139.593 32.1875 140.302C32.8572 141.011 33.7654 141.409 34.7125 141.409H134.696C135.643 141.409 136.551 141.011 137.221 140.302C137.89 139.593 138.266 138.632 138.266 137.629V31.7839C138.266 30.7814 137.89 29.8199 137.221 29.1109C136.551 28.402 135.643 28.0037 134.696 28.0037ZM34.7125 20.4434C31.8713 20.4434 29.1466 21.6382 27.1376 23.7649C25.1286 25.8917 24 28.7762 24 31.7839V137.629C24 140.637 25.1286 143.521 27.1376 145.648C29.1466 147.775 31.8713 148.97 34.7125 148.97H134.696C137.537 148.97 140.261 147.775 142.27 145.648C144.279 143.521 145.408 140.637 145.408 137.629V31.7839C145.408 28.7762 144.279 25.8917 142.27 23.7649C140.261 21.6382 137.537 20.4434 134.696 20.4434H34.7125Z" fill="#F2F2F2"/>
</svg>
