<svg width="25" height="24" viewBox="0 0 25 24" fill="none" xmlns="http://www.w3.org/2000/svg">
<path fill-rule="evenodd" clip-rule="evenodd" d="M12.5 18C15.8137 18 18.5 15.3137 18.5 12C18.5 8.68629 15.8137 6 12.5 6C9.18629 6 6.5 8.68629 6.5 12C6.5 15.3137 9.18629 18 12.5 18Z" fill="#1A1D1F"/>
<path fill-rule="evenodd" clip-rule="evenodd" d="M12.4951 1.5C13.0474 1.5 13.4951 1.94772 13.4951 2.5V3.5C13.4951 4.05228 13.0474 4.5 12.4951 4.5C11.9428 4.5 11.4951 4.05228 11.4951 3.5V2.5C11.4951 1.94772 11.9428 1.5 12.4951 1.5Z" fill="#1A1D1F"/>
<path fill-rule="evenodd" clip-rule="evenodd" d="M12.4951 19.5C13.0474 19.5 13.4951 19.9477 13.4951 20.5V21.4968C13.4951 22.0491 13.0474 22.4968 12.4951 22.4968C11.9428 22.4968 11.4951 22.0491 11.4951 21.4968V20.5C11.4951 19.9477 11.9428 19.5 12.4951 19.5Z" fill="#1A1D1F"/>
<path fill-rule="evenodd" clip-rule="evenodd" d="M1.9967 11.9984C1.9967 11.4461 2.44442 10.9984 2.9967 10.9984H3.9967C4.54899 10.9984 4.9967 11.4461 4.9967 11.9984C4.9967 12.5507 4.54899 12.9984 3.9967 12.9984H2.9967C2.44442 12.9984 1.9967 12.5507 1.9967 11.9984Z" fill="#1A1D1F"/>
<path fill-rule="evenodd" clip-rule="evenodd" d="M19.9967 11.9984C19.9967 11.4461 20.4444 10.9984 20.9967 10.9984H21.9935C22.5458 10.9984 22.9935 11.4461 22.9935 11.9984C22.9935 12.5507 22.5458 12.9984 21.9935 12.9984H20.9967C20.4444 12.9984 19.9967 12.5507 19.9967 11.9984Z" fill="#1A1D1F"/>
<path fill-rule="evenodd" clip-rule="evenodd" d="M5.07171 19.4219C4.68118 19.0313 4.68118 18.3982 5.07171 18.0077L5.77881 17.3005C6.16934 16.91 6.8025 16.91 7.19303 17.3005C7.58355 17.6911 7.58355 18.3242 7.19303 18.7148L6.48592 19.4219C6.0954 19.8124 5.46223 19.8124 5.07171 19.4219Z" fill="#1A1D1F"/>
<path fill-rule="evenodd" clip-rule="evenodd" d="M17.7996 6.69394C17.4091 6.30342 17.4091 5.67025 17.7996 5.27973L18.5045 4.5749C18.895 4.18438 19.5281 4.18438 19.9187 4.5749C20.3092 4.96543 20.3092 5.59859 19.9187 5.98911L19.2138 6.69394C18.8233 7.08447 18.1902 7.08447 17.7996 6.69394Z" fill="#1A1D1F"/>
<path fill-rule="evenodd" clip-rule="evenodd" d="M5.07171 4.5749C5.46223 4.18438 6.0954 4.18438 6.48592 4.5749L7.19303 5.28201C7.58355 5.67253 7.58355 6.3057 7.19303 6.69622C6.8025 7.08675 6.16934 7.08675 5.77881 6.69622L5.07171 5.98911C4.68118 5.59859 4.68118 4.96543 5.07171 4.5749Z" fill="#1A1D1F"/>
<path fill-rule="evenodd" clip-rule="evenodd" d="M17.7996 17.3028C18.1902 16.9123 18.8233 16.9123 19.2138 17.3028L19.9187 18.0077C20.3092 18.3982 20.3092 19.0313 19.9187 19.4219C19.5281 19.8124 18.895 19.8124 18.5045 19.4219L17.7996 18.717C17.4091 18.3265 17.4091 17.6933 17.7996 17.3028Z" fill="#1A1D1F"/>
</svg>
